# xmcd
#
# Track frame offsets:
#	150
#	11552
#	24220
#	37292
#	48645
#	60750
#	73775
#	85497
#	99115
#	111325
#	123322
#	136662
#	149345
#	162552
#	175415
#	189677
#	202415
#	215667
#	228530
#	239960
#	251827
#	264647
#	277257
#	291140
#	304905
#	317355
#	329590
#	342062
#
# Disc length: 4736 seconds
#
# Revision: 1
# Processed by: cddbd v1.4PL0 Copyright (c) Steve Scherf et al.
# Submitted via: audiograbber 1.80
#
DISCID=be127e1c
DTITLE=tex ritter - blood on the saddle disc 4
DYEAR=1900
DGENRE=
TTITLE0=have i told you lately that i love you? 1966
TTITLE1=i was out of my mind 1983
TTITLE2=when you leave don't slam the door 1946
TTITLE3=from now on 1946
TTITLE4=ninety nine years (is a long time) 1999
TTITLE5=poor unwanted heart 1999
TTITLE6=one little teardrop too late 1946
TTITLE7=ford worth jail 1947
TTITLE8=i told my heart 1999
TTITLE9=ninety nine years is a long tim 1946
TTITLE10=i'll forget if you'll forgive 1999
TTITLE11=i don't want you anymore 1949
TTITLE12=cool water (& the dinning sisters) 1947
TTITLE13=trouble in mind (& the dinning sisters) 1947
TTITLE14=the roving gambler 1999
TTITLE15=down in the valley (& the dinning sisters) 1947
TTITLE16=you are my sunshine (& the dinning sisters) 1947
TTITLE17=my heart's as cold as an empty jug 1948
TTITLE18=i cannot tell a lie 1999
TTITLE19=double dealin' darlin' 1948
TTITLE20=toodle-loo my darlin' 1947
TTITLE21=bats in your belfry 1947
TTITLE22=cattle call 1947
TTITLE23=the last mile 1947
TTITLE24=the prisoner's song 1947
TTITLE25=don't make me sorry 1947
TTITLE26=i can't get my foot off the rail 1948
TTITLE27=the god's were angry with me (& eddie kirk) 1948
EXTD=
EXTT0=
EXTT1=
EXTT2=
EXTT3=
EXTT4=
EXTT5=
EXTT6=
EXTT7=
EXTT8=
EXTT9=
EXTT10=
EXTT11=
EXTT12=
EXTT13=
EXTT14=
EXTT15=
EXTT16=
EXTT17=
EXTT18=
EXTT19=
EXTT20=
EXTT21=
EXTT22=
EXTT23=
EXTT24=
EXTT25=
EXTT26=
EXTT27=
PLAYORDER=
